<svg width="155" height="39" viewBox="0 0 155 39" fill="none" xmlns="http://www.w3.org/2000/svg">
<rect width="154.04" height="38.504" rx="6" fill="#C03540"/>
<path d="M21.472 28.504H17.92L10 10H29.368L21.472 28.504ZM19.696 23.248L23.776 13.696H15.616L19.696 23.248Z" fill="white"/>
<path d="M45.768 13.852H54.168V10.852H45.768C41.136 10.852 37.368 14.62 37.368 19.252C37.368 23.884 41.136 27.652 45.768 27.652H54.168V18.436H45.768V21.436H51.168V24.652H45.768C42.792 24.652 40.368 22.228 40.368 19.252C40.368 16.276 42.792 13.852 45.768 13.852Z" fill="white"/>
<path d="M68.7793 21.22V18.22H57.4033V21.22H68.7793Z" fill="white"/>
<path d="M87.9126 15.484V15.388C87.9126 12.892 85.8726 10.852 83.3766 10.852H76.5606C74.0646 10.852 72.0486 12.892 72.0486 15.388V15.484C72.0486 16.444 72.3366 17.332 72.8406 18.052C73.0086 18.316 73.2006 18.556 73.4166 18.772C74.2326 19.564 75.3366 20.044 76.5606 20.044H82.6086C83.8806 20.044 84.9366 21.076 84.9366 22.348C84.9366 23.62 83.8806 24.652 82.6086 24.652H77.3526C76.0806 24.652 75.0486 23.62 75.0486 22.348H72.0486C72.0486 25.276 74.4246 27.652 77.3526 27.652H82.6086C85.5366 27.652 87.9126 25.276 87.9126 22.348C87.9126 21.076 87.4566 19.9 86.7126 18.988C86.6406 18.916 86.5926 18.844 86.5206 18.772C85.5606 17.716 84.1686 17.044 82.6086 17.044H76.5606C75.7206 17.044 75.0246 16.348 75.0246 15.508V15.412C75.0246 14.572 75.7206 13.876 76.5606 13.876H83.3766C84.2166 13.876 84.9126 14.572 84.9126 15.412V15.508L87.9126 15.484Z" fill="white"/>
<path d="M111.163 10.852H108.043L105.019 20.98L102.475 17.452L101.995 16.78L100.627 14.908L99.2591 16.78L98.7791 17.452L96.2351 20.98L93.2111 10.852H90.0911L94.0031 24.028L95.0831 27.628L97.2911 24.58L100.603 19.996L103.939 24.58L106.147 27.652L107.227 24.028L111.163 10.852Z" fill="white"/>
<path d="M125.071 24.652L118.039 10.852L111.007 24.652L109.471 27.652H112.831L114.367 24.652L118.039 17.452L121.711 24.652L123.247 27.652H126.607L125.071 24.652Z" fill="white"/>
<path d="M142.696 12.172C141.88 11.356 140.752 10.852 139.504 10.852H128.92V27.652H131.92V19.924H139.96V19.9C140.008 19.9 140.056 19.9 140.104 19.9C140.56 19.852 140.992 19.732 141.4 19.54C142.96 18.82 144.04 17.236 144.04 15.412C144.04 14.164 143.536 13.036 142.72 12.196L142.696 12.172ZM140.152 16.804C139.96 16.9 139.744 16.948 139.528 16.948H131.92V13.852H139.528C140.056 13.852 140.416 14.092 140.608 14.284C140.776 14.452 141.064 14.836 141.064 15.388C141.064 15.988 140.704 16.54 140.152 16.78V16.804Z" fill="white"/>
</svg>
